<svg width="800" height="97" viewBox="0 0 800 97" fill="none" xmlns="http://www.w3.org/2000/svg">
<path d="M0 8C0 3.58172 3.58172 0 8 0H792C796.418 0 800 3.58172 800 8V97H0V8Z" fill="#0032A0"/>
<path fill-rule="evenodd" clip-rule="evenodd" d="M97.9164 54.516L95.9151 50.0964L93.8981 54.516H97.9164ZM94.0533 46.9656H97.7781C98.4251 48.3684 103.789 59.9028 103.789 59.9028H100.384L98.9832 56.8716H92.8025L91.4398 59.9052H88.0217L94.0533 46.9656Z" fill="white"/>
<path fill-rule="evenodd" clip-rule="evenodd" d="M138.068 49.8624C135.91 49.8624 134.862 50.9952 134.862 50.9952L134.685 50.0592H131.772C131.887 50.4108 132.08 51.0612 132.08 51.6372V59.9052H134.96V54.1704C134.96 52.6356 135.91 51.8376 138.068 51.8376C139.254 51.8376 139.98 52.2288 139.98 54.1704V59.9052H142.849V54.1704C142.849 51.2448 141.902 49.8624 138.068 49.8624Z" fill="white"/>
<path fill-rule="evenodd" clip-rule="evenodd" d="M147.999 53.991C148.167 52.7778 148.719 51.8478 150.991 51.8478C152.659 51.8478 153.257 52.9158 153.353 53.991H147.999ZM150.991 49.8954C146.1 49.8954 145.011 52.1814 145.011 54.9834C145.011 57.8154 146.078 60.1098 151.23 60.1098C153.116 60.1098 154.878 59.7582 155.28 59.6754C155.357 59.1738 155.524 58.0854 155.578 57.7122C155.303 57.7398 153.071 58.1502 151.23 58.1502C148.836 58.1502 148.195 57.2394 147.999 55.9734H156.279V54.9834C156.279 51.4542 154.39 49.8954 150.991 49.8954Z" fill="white"/>
<path fill-rule="evenodd" clip-rule="evenodd" d="M53.9001 58.1652C51.4947 58.1652 50.7803 56.9712 50.7803 54.9924C50.7803 53.0496 51.4947 51.8616 53.9001 51.8616C56.2911 51.8616 57.0115 53.0496 57.0115 54.9924C57.0115 56.9712 56.2911 58.1652 53.9001 58.1652ZM53.9001 49.8875C50.304 49.8875 47.907 51.4643 47.907 54.9923C47.907 58.5623 50.304 60.1187 53.9001 60.1187C57.4913 60.1187 59.8787 58.5623 59.8787 54.9923C59.8787 51.4643 57.4913 49.8875 53.9001 49.8875Z" fill="white"/>
<path fill-rule="evenodd" clip-rule="evenodd" d="M82.9999 56.1577C82.9999 57.9829 81.2475 58.1425 79.6431 58.1425C79.0887 58.1425 78.2143 58.0237 78.2143 56.9473C78.2143 56.2369 79.1837 55.7617 80.3623 55.7617H82.9999V56.1577ZM85.8683 53.0293C85.8683 51.0481 83.7419 49.8625 80.6029 49.8625C78.9865 49.8625 76.9996 50.4925 76.3165 50.7277C76.2515 51.1405 76.047 52.4401 76.0062 52.7125C76.6304 52.5745 79.0791 51.8377 80.6029 51.8377C82.1748 51.8377 82.9999 52.3729 82.9999 53.1469V53.9821C82.9999 53.9821 81.0587 53.7925 80.3623 53.7925C77.2293 53.7925 75.3326 54.9097 75.3326 56.9473C75.3326 59.5285 78.1867 60.0925 79.6431 60.0925C81.6071 60.0925 82.6355 59.5705 83.1177 59.1325L83.2837 59.9053H86.163C86.1293 59.7517 85.8683 59.0617 85.8683 58.1425V53.0293Z" fill="white"/>
<path fill-rule="evenodd" clip-rule="evenodd" d="M39.8918 46.5858C43.2678 46.581 45.3641 47.6454 46.5283 49.3194L43.5131 50.4882C42.8625 49.5666 41.7716 48.9618 39.9303 48.951H39.8557C38.0541 48.9606 36.9764 49.527 36.3174 50.4114C35.7413 51.1782 35.4274 52.1658 35.4274 53.2866V53.4714H35.425C35.4382 54.5406 35.7557 55.5738 36.3174 56.3166C36.9764 57.1938 38.0541 57.7734 39.8557 57.777H39.9303C41.7367 57.7734 42.824 57.1794 43.4807 56.289L46.5283 57.4554C45.3581 59.1066 43.2389 60.1182 39.9074 60.1182H39.8918C36.9307 60.1182 34.9451 59.3382 33.7267 57.9942C32.6178 56.787 32.0538 55.1826 32.0574 53.4066V53.2866C32.0538 51.5502 32.6191 49.9398 33.7243 48.7398C34.9427 47.3994 36.9295 46.5834 39.8918 46.5858Z" fill="white"/>
<path fill-rule="evenodd" clip-rule="evenodd" d="M123.457 58.3421V46.9709H120.582V58.3421C120.582 59.0321 120.826 59.7365 120.887 59.9057H123.765C123.723 59.7389 123.457 59.0645 123.457 58.3421Z" fill="white"/>
<path fill-rule="evenodd" clip-rule="evenodd" d="M113.852 54.1515C113.864 52.6371 114.986 51.8379 116.966 51.8379C117.295 51.8379 118.591 52.0023 119.146 52.0755C119.121 51.8223 118.921 50.6007 118.838 50.0967C118.428 50.0199 117.51 49.8627 116.966 49.8627C115.28 49.8627 114.333 50.4807 113.809 50.9487L113.566 50.0595H110.673C110.726 50.2587 110.972 50.9295 110.976 51.6123V59.9031H113.852V54.1515Z" fill="white"/>
<path fill-rule="evenodd" clip-rule="evenodd" d="M68.0213 58.1523C65.5822 58.1523 64.9099 56.7591 64.9099 54.9855C64.9616 53.0991 65.5822 51.8499 68.0213 51.8499C70.2295 51.8499 70.6588 53.2371 70.6588 54.9855C70.6588 56.7591 70.2295 58.1523 68.0213 58.1523ZM68.0213 49.8735C66.2281 49.8735 64.8389 50.9247 64.8389 50.9247C64.8389 50.9247 64.685 50.3427 64.6213 50.0739H61.7288C61.8322 50.4291 62.0367 51.1143 62.0367 51.8499V63.0399H64.9099V59.1423C65.4884 59.5635 66.5612 60.1119 68.0213 60.1119C72.8405 60.1119 73.5357 57.8151 73.5357 54.9855C73.5357 52.1835 72.8405 49.8735 68.0213 49.8735Z" fill="white"/>
<path fill-rule="evenodd" clip-rule="evenodd" d="M166.642 50.392V52.6192C166.08 52.3168 165.493 52.084 164.885 51.9316C164.269 51.7768 163.657 51.7 163.046 51.7C162.364 51.7 161.848 51.784 161.496 51.9508C161.153 52.1128 160.974 52.3636 160.974 52.6888C160.974 53.1544 161.723 53.5288 163.209 53.8204L163.322 53.8444L164.204 54.0148C165.325 54.2368 166.142 54.592 166.658 55.0804C167.18 55.5796 167.433 56.2396 167.433 57.0712C167.433 58.0852 167.039 58.846 166.247 59.344C165.462 59.8468 164.269 60.0952 162.681 60.0952C161.979 60.0952 161.253 60.0472 160.513 59.95C159.781 59.842 159.029 59.6968 158.272 59.4904V57.2452C158.947 57.5728 159.635 57.8152 160.335 57.9856C161.033 58.1596 161.711 58.246 162.366 58.246C163.081 58.246 163.626 58.1536 163.996 57.9796C164.362 57.8008 164.552 57.55 164.552 57.2128C164.552 56.8912 164.416 56.6404 164.16 56.4604C163.899 56.2816 163.27 56.1076 162.292 55.9072L161.441 55.7452C160.276 55.5352 159.421 55.1848 158.888 54.7156C158.354 54.2392 158.083 53.6176 158.083 52.828C158.083 51.8824 158.489 51.1564 159.303 50.6404C160.122 50.1088 161.265 49.8508 162.74 49.8508C163.402 49.8508 164.061 49.8952 164.73 49.9816C165.385 50.0728 166.024 50.2108 166.642 50.392Z" fill="white"/>
<path fill-rule="evenodd" clip-rule="evenodd" d="M127.765 49.2977C128.386 49.2977 128.815 49.2185 129.045 49.0493C129.272 48.8753 129.389 48.5729 129.389 48.1217C129.389 47.6957 129.277 47.3921 129.059 47.2229C128.831 47.0549 128.412 46.9697 127.789 46.9697C127.157 46.9697 126.732 47.0597 126.501 47.2337C126.274 47.4089 126.166 47.7197 126.166 48.1661C126.166 48.5993 126.269 48.8897 126.486 49.0553C126.712 49.2185 127.136 49.2977 127.765 49.2977ZM129.206 58.3421V50.0549H126.337V58.3421C126.337 59.0729 126.607 59.8025 126.647 59.9057H129.515C129.464 59.7233 129.206 59.0453 129.206 58.3421Z" fill="white"/>
<path fill-rule="evenodd" clip-rule="evenodd" d="M106.655 49.2977C107.278 49.2977 107.701 49.2185 107.934 49.0493C108.161 48.8753 108.283 48.5729 108.283 48.1217C108.283 47.6957 108.163 47.3921 107.948 47.2229C107.722 47.0549 107.301 46.9697 106.681 46.9697C106.047 46.9697 105.622 47.0597 105.393 47.2337C105.168 47.4089 105.055 47.7197 105.055 48.1661C105.055 48.5993 105.163 48.8897 105.381 49.0553C105.601 49.2185 106.026 49.2977 106.655 49.2977ZM108.099 58.3421V50.0549H105.226V58.3421C105.226 59.0729 105.5 59.8025 105.54 59.9057H108.405C108.353 59.7233 108.099 59.0453 108.099 58.3421Z" fill="white"/>
<path fill-rule="evenodd" clip-rule="evenodd" d="M206.899 67.8888H206.608V67.4196H207.075C207.274 67.4196 207.52 67.4532 207.52 67.6452C207.52 67.9332 207.126 67.8888 206.899 67.8888ZM207.77 67.6452C207.77 67.254 207.454 67.1664 207.129 67.1664H206.357V68.988H206.608V68.1564H206.899L207.444 68.988H207.747L207.203 68.1564C207.525 68.1444 207.77 68.0112 207.77 67.6452Z" fill="white"/>
<path fill-rule="evenodd" clip-rule="evenodd" d="M206.961 69.4802C206.216 69.4802 205.557 68.873 205.557 68.0954C205.557 67.307 206.216 66.6914 206.961 66.6914C207.715 66.6914 208.368 67.307 208.368 68.0954C208.368 68.873 207.715 69.4802 206.961 69.4802ZM206.961 66.4634C206.044 66.4634 205.304 67.1618 205.304 68.0954C205.304 69.0182 206.044 69.7382 206.961 69.7382C207.887 69.7382 208.623 69.0182 208.623 68.0954C208.623 67.1618 207.887 66.4634 206.961 66.4634Z" fill="white"/>
<path fill-rule="evenodd" clip-rule="evenodd" d="M172.392 53.1248V54.0584C175.559 52.826 178.753 52.0748 181.819 51.6308C178.994 51.5576 175.672 52.0376 172.392 53.1248Z" fill="white"/>
<path fill-rule="evenodd" clip-rule="evenodd" d="M189.704 54.0986C188.958 53.5586 188.175 53.0654 187.163 52.6514C187.501 52.6298 187.851 52.5758 188.248 52.5554C188.879 52.973 189.728 53.6366 190.231 54.269L189.704 54.0986ZM182.744 50.2144C181.966 49.9216 181.046 49.726 180.132 49.5964C180.528 49.5087 180.915 49.4332 181.356 49.3792C181.997 49.5544 182.844 49.858 183.652 50.356L182.744 50.2144ZM172.392 48.2091C173.244 48.1839 174.22 48.4683 175.276 48.6075L173.42 48.8451C173.104 48.8583 172.749 48.8871 172.392 48.9219V49.3395C173.736 49.0887 175.207 48.9255 176.571 48.9135C188.521 46.0611 198.42 48.7467 198.42 48.7467C196.297 48.2619 184.462 46.6467 172.392 51.3903V52.1103C174.184 51.5043 176.077 51.0363 177.888 50.8215C180.574 50.4903 183.07 50.6379 185.173 51.2331C194.005 50.6007 200.406 52.4943 200.406 52.4943C198.003 52.1019 185.108 50.3307 172.392 56.1495V56.7279C175.912 55.0443 179.604 54.0735 182.752 53.8659C185.942 53.6943 188.796 54.1491 190.942 55.4259C196.002 55.3479 199.858 56.0031 202.013 56.5275V40.1919H172.392V48.2091Z" fill="white"/>
<path fill-rule="evenodd" clip-rule="evenodd" d="M172.392 57.9203V59.7251C177.595 57.1943 182.899 55.9919 187.52 55.5935C183.298 54.8471 177.887 55.6163 172.392 57.9203Z" fill="white"/>
<path fill-rule="evenodd" clip-rule="evenodd" d="M195.129 60.0705C194.231 58.7457 193.095 57.7449 191.518 56.9781C191.99 56.9217 192.582 56.9049 193.025 56.8845C193.183 57.0009 193.333 57.1461 193.475 57.3225C193.529 57.4005 195.286 59.1321 195.875 60.8949L195.129 60.0705ZM172.393 62.1046V62.8546C172.75 62.6506 173.108 62.4562 173.445 62.275C176.107 60.8434 178.766 59.8462 181.424 59.239C183.94 58.639 186.404 58.4266 188.657 58.627C192.915 59.0098 195.974 60.871 197.447 64.0846C197.461 64.1086 198.513 66.469 198.614 68.695L198.103 67.4206C197.968 66.7846 197.794 66.1306 197.461 65.545C196.37 63.4234 194.243 61.9006 191.375 61.0078C188.77 60.1846 185.349 60.1486 181.8 60.8434C178.65 61.441 175.444 62.6314 172.393 64.1434V69.7402H172.688C174.519 68.3782 176.494 67.3798 178.547 66.565C183.928 64.249 189.162 63.5482 193.09 64.591C195.974 65.4166 197.859 67.1206 198.626 69.7402H202.014V56.7646C197.167 56.2126 184.25 55.3186 172.393 62.1046Z" fill="white"/>
<path fill-rule="evenodd" clip-rule="evenodd" d="M192.52 66.6723C189.95 65.9907 186.993 65.9499 183.715 66.5571C180.79 67.0923 177.724 68.0859 174.776 69.7407H197.273C196.225 68.2119 194.557 67.2327 192.52 66.6723Z" fill="white"/>
<rect opacity="0.5" x="32" y="96" width="736" height="1" fill="#CCCCCB"/>
</svg>
