<svg width="800" height="97" viewBox="0 0 800 97" fill="none" xmlns="http://www.w3.org/2000/svg">
<path d="M0 8C0 3.58172 3.58172 0 8 0H792C796.418 0 800 3.58172 800 8V97H0V8Z" fill="#0032A0"/>
<path fill-rule="evenodd" clip-rule="evenodd" d="M97.9164 54.516L95.9151 50.0964L93.8981 54.516H97.9164ZM94.0533 46.9656H97.7781C98.4251 48.3684 103.789 59.9028 103.789 59.9028H100.384L98.9832 56.8716H92.8025L91.4398 59.9052H88.0217L94.0533 46.9656Z" fill="white"/>
<path fill-rule="evenodd" clip-rule="evenodd" d="M138.068 49.8624C135.91 49.8624 134.862 50.9952 134.862 50.9952L134.685 50.0592H131.772C131.887 50.4108 132.08 51.0612 132.08 51.6372V59.9052H134.96V54.1704C134.96 52.6356 135.91 51.8376 138.068 51.8376C139.254 51.8376 139.98 52.2288 139.98 54.1704V59.9052H142.849V54.1704C142.849 51.2448 141.902 49.8624 138.068 49.8624Z" fill="white"/>
<path fill-rule="evenodd" clip-rule="evenodd" d="M147.999 53.991C148.167 52.7778 148.719 51.8478 150.991 51.8478C152.659 51.8478 153.257 52.9158 153.353 53.991H147.999ZM150.991 49.8954C146.1 49.8954 145.011 52.1814 145.011 54.9834C145.011 57.8154 146.078 60.1098 151.23 60.1098C153.116 60.1098 154.878 59.7582 155.28 59.6754C155.357 59.1738 155.524 58.0854 155.578 57.7122C155.303 57.7398 153.071 58.1502 151.23 58.1502C148.836 58.1502 148.195 57.2394 147.999 55.9734H156.279V54.9834C156.279 51.4542 154.39 49.8954 150.991 49.8954Z" fill="white"/>
<path fill-rule="evenodd" clip-rule="evenodd" d="M53.9001 58.1652C51.4947 58.1652 50.7803 56.9712 50.7803 54.9924C50.7803 53.0496 51.4947 51.8616 53.9001 51.8616C56.2911 51.8616 57.0115 53.0496 57.0115 54.9924C57.0115 56.9712 56.2911 58.1652 53.9001 58.1652ZM53.9001 49.8875C50.304 49.8875 47.907 51.4643 47.907 54.9923C47.907 58.5623 50.304 60.1187 53.9001 60.1187C57.4913 60.1187 59.8787 58.5623 59.8787 54.9923C59.8787 51.4643 57.4913 49.8875 53.9001 49.8875Z" fill="white"/>
<path fill-rule="evenodd" clip-rule="evenodd" d="M82.9999 56.1577C82.9999 57.9829 81.2475 58.1425 79.6431 58.1425C79.0887 58.1425 78.2143 58.0237 78.2143 56.9473C78.2143 56.2369 79.1837 55.7617 80.3623 55.7617H82.9999V56.1577ZM85.8683 53.0293C85.8683 51.0481 83.7419 49.8625 80.6029 49.8625C78.9865 49.8625 76.9996 50.4925 76.3165 50.7277C76.2515 51.1405 76.047 52.4401 76.0062 52.7125C76.6304 52.5745 79.0791 51.8377 80.6029 51.8377C82.1748 51.8377 82.9999 52.3729 82.9999 53.1469V53.9821C82.9999 53.9821 81.0587 53.7925 80.3623 53.7925C77.2293 53.7925 75.3326 54.9097 75.3326 56.9473C75.3326 59.5285 78.1867 60.0925 79.6431 60.0925C81.6071 60.0925 82.6355 59.5705 83.1177 59.1325L83.2837 59.9053H86.163C86.1293 59.7517 85.8683 59.0617 85.8683 58.1425V53.0293Z" fill="white"/>
<path fill-rule="evenodd" clip-rule="evenodd" d="M39.8918 46.5858C43.2678 46.581 45.3641 47.6454 46.5283 49.3194L43.5131 50.4882C42.8625 49.5666 41.7716 48.9618 39.9303 48.951H39.8557C38.0541 48.9606 36.9764 49.527 36.3174 50.4114C35.7413 51.1782 35.4274 52.1658 35.4274 53.2866V53.4714H35.425C35.4382 54.5406 35.7557 55.5738 36.3174 56.3166C36.9764 57.1938 38.0541 57.7734 39.8557 57.777H39.9303C41.7367 57.7734 42.824 57.1794 43.4807 56.289L46.5283 57.4554C45.3581 59.1066 43.2389 60.1182 39.9074 60.1182H39.8918C36.9307 60.1182 34.9451 59.3382 33.7267 57.9942C32.6178 56.787 32.0538 55.1826 32.0574 53.4066V53.2866C32.0538 51.5502 32.6191 49.9398 33.7243 48.7398C34.9427 47.3994 36.9295 46.5834 39.8918 46.5858Z" fill="white"/>
<path fill-rule="evenodd" clip-rule="evenodd" d="M123.457 58.3421V46.9709H120.582V58.3421C120.582 59.0321 120.826 59.7365 120.887 59.9057H123.765C123.723 59.7389 123.457 59.0645 123.457 58.3421Z" fill="white"/>
<path fill-rule="evenodd" clip-rule="evenodd" d="M113.852 54.1515C113.864 52.6371 114.986 51.8379 116.966 51.8379C117.295 51.8379 118.591 52.0023 119.146 52.0755C119.121 51.8223 118.921 50.6007 118.838 50.0967C118.428 50.0199 117.51 49.8627 116.966 49.8627C115.28 49.8627 114.333 50.4807 113.809 50.9487L113.566 50.0595H110.673C110.726 50.2587 110.972 50.9295 110.976 51.6123V59.9031H113.852V54.1515Z" fill="white"/>
<path fill-rule="evenodd" clip-rule="evenodd" d="M68.0213 58.1523C65.5822 58.1523 64.9099 56.7591 64.9099 54.9855C64.9616 53.0991 65.5822 51.8499 68.0213 51.8499C70.2295 51.8499 70.6588 53.2371 70.6588 54.9855C70.6588 56.7591 70.2295 58.1523 68.0213 58.1523ZM68.0213 49.8735C66.2281 49.8735 64.8389 50.9247 64.8389 50.9247C64.8389 50.9247 64.685 50.3427 64.6213 50.0739H61.7288C61.8322 50.4291 62.0367 51.1143 62.0367 51.8499V63.0399H64.9099V59.1423C65.4884 59.5635 66.5612 60.1119 68.0213 60.1119C72.8405 60.1119 73.5357 57.8151 73.5357 54.9855C73.5357 52.1835 72.8405 49.8735 68.0213 49.8735Z" fill="white"/>
<path fill-rule="evenodd" clip-rule="evenodd" d="M166.642 50.392V52.6192C166.08 52.3168 165.493 52.084 164.885 51.9316C164.269 51.7768 163.657 51.7 163.046 51.7C162.364 51.7 161.848 51.784 161.496 51.9508C161.153 52.1128 160.974 52.3636 160.974 52.6888C160.974 53.1544 161.723 53.5288 163.209 53.8204L163.322 53.8444L164.204 54.0148C165.325 54.2368 166.142 54.592 166.658 55.0804C167.18 55.5796 167.433 56.2396 167.433 57.0712C167.433 58.0852 167.039 58.846 166.247 59.344C165.462 59.8468 164.269 60.0952 162.681 60.0952C161.979 60.0952 161.253 60.0472 160.513 59.95C159.781 59.842 159.029 59.6968 158.272 59.4904V57.2452C158.947 57.5728 159.635 57.8152 160.335 57.9856C161.033 58.1596 161.711 58.246 162.366 58.246C163.081 58.246 163.626 58.1536 163.996 57.9796C164.362 57.8008 164.552 57.55 164.552 57.2128C164.552 56.8912 164.416 56.6404 164.16 56.4604C163.899 56.2816 163.27 56.1076 162.292 55.9072L161.441 55.7452C160.276 55.5352 159.421 55.1848 158.888 54.7156C158.354 54.2392 158.083 53.6176 158.083 52.828C158.083 51.8824 158.489 51.1564 159.303 50.6404C160.122 50.1088 161.265 49.8508 162.74 49.8508C163.402 49.8508 164.061 49.8952 164.73 49.9816C165.385 50.0728 166.024 50.2108 166.642 50.392Z" fill="white"/>
<path fill-rule="evenodd" clip-rule="evenodd" d="M127.765 49.2977C128.386 49.2977 128.815 49.2185 129.045 49.0493C129.272 48.8753 129.389 48.5729 129.389 48.1217C129.389 47.6957 129.277 47.3921 129.059 47.2229C128.831 47.0549 128.412 46.9697 127.789 46.9697C127.157 46.9697 126.732 47.0597 126.501 47.2337C126.274 47.4089 126.166 47.7197 126.166 48.1661C126.166 48.5993 126.269 48.8897 126.486 49.0553C126.712 49.2185 127.136 49.2977 127.765 49.2977ZM129.206 58.3421V50.0549H126.337V58.3421C126.337 59.0729 126.607 59.8025 126.647 59.9057H129.515C129.464 59.7233 129.206 59.0453 129.206 58.3421Z" fill="white"/>
<path fill-rule="evenodd" clip-rule="evenodd" d="M106.655 49.2977C107.278 49.2977 107.701 49.2185 107.934 49.0493C108.161 48.8753 108.283 48.5729 108.283 48.1217C108.283 47.6957 108.163 47.3921 107.948 47.2229C107.722 47.0549 107.301 46.9697 106.681 46.9697C106.047 46.9697 105.622 47.0597 105.393 47.2337C105.168 47.4089 105.055 47.7197 105.055 48.1661C105.055 48.5993 105.163 48.8897 105.381 49.0553C105.601 49.2185 106.026 49.2977 106.655 49.2977ZM108.099 58.3421V50.0549H105.226V58.3421C105.226 59.0729 105.5 59.8025 105.54 59.9057H108.405C108.353 59.7233 108.099 59.0453 108.099 58.3421Z" fill="white"/>
<path fill-rule="evenodd" clip-rule="evenodd" d="M206.899 67.8888H206.608V67.4196H207.075C207.274 67.4196 207.52 67.4532 207.52 67.6452C207.52 67.9332 207.126 67.8888 206.899 67.8888ZM207.77 67.6452C207.77 67.254 207.454 67.1664 207.129 67.1664H206.357V68.988H206.608V68.1564H206.899L207.444 68.988H207.747L207.203 68.1564C207.525 68.1444 207.77 68.0112 207.77 67.6452Z" fill="white"/>
<path fill-rule="evenodd" clip-rule="evenodd" d="M206.961 69.4802C206.216 69.4802 205.557 68.873 205.557 68.0954C205.557 67.307 206.216 66.6914 206.961 66.6914C207.715 66.6914 208.368 67.307 208.368 68.0954C208.368 68.873 207.715 69.4802 206.961 69.4802ZM206.961 66.4634C206.044 66.4634 205.304 67.1618 205.304 68.0954C205.304 69.0182 206.044 69.7382 206.961 69.7382C207.887 69.7382 208.623 69.0182 208.623 68.0954C208.623 67.1618 207.887 66.4634 206.961 66.4634Z" fill="white"/>
<path fill-rule="evenodd" clip-rule="evenodd" d="M172.392 53.1248V54.0584C175.559 52.826 178.753 52.0748 181.819 51.6308C178.994 51.5576 175.672 52.0376 172.392 53.1248Z" fill="white"/>
<path fill-rule="evenodd" clip-rule="evenodd" d="M189.704 54.0986C188.958 53.5586 188.175 53.0654 187.163 52.6514C187.501 52.6298 187.851 52.5758 188.248 52.5554C188.879 52.973 189.728 53.6366 190.231 54.269L189.704 54.0986ZM182.744 50.2144C181.966 49.9216 181.046 49.726 180.132 49.5964C180.528 49.5087 180.915 49.4332 181.356 49.3792C181.997 49.5544 182.844 49.858 183.652 50.356L182.744 50.2144ZM172.392 48.2091C173.244 48.1839 174.22 48.4683 175.276 48.6075L173.42 48.8451C173.104 48.8583 172.749 48.8871 172.392 48.9219V49.3395C173.736 49.0887 175.207 48.9255 176.571 48.9135C188.521 46.0611 198.42 48.7467 198.42 48.7467C196.297 48.2619 184.462 46.6467 172.392 51.3903V52.1103C174.184 51.5043 176.077 51.0363 177.888 50.8215C180.574 50.4903 183.07 50.6379 185.173 51.2331C194.005 50.6007 200.406 52.4943 200.406 52.4943C198.003 52.1019 185.108 50.3307 172.392 56.1495V56.7279C175.912 55.0443 179.604 54.0735 182.752 53.8659C185.942 53.6943 188.796 54.1491 190.942 55.4259C196.002 55.3479 199.858 56.0031 202.013 56.5275V40.1919H172.392V48.2091Z" fill="white"/>
<path fill-rule="evenodd" clip-rule="evenodd" d="M172.392 57.9203V59.7251C177.595 57.1943 182.899 55.9919 187.52 55.5935C183.298 54.8471 177.887 55.6163 172.392 57.9203Z" fill="white"/>
<path fill-rule="evenodd" clip-rule="evenodd" d="M195.129 60.0705C194.231 58.7457 193.095 57.7449 191.518 56.9781C191.99 56.9217 192.582 56.9049 193.025 56.8845C193.183 57.0009 193.333 57.1461 193.475 57.3225C193.529 57.4005 195.286 59.1321 195.875 60.8949L195.129 60.0705ZM172.393 62.1046V62.8546C172.75 62.6506 173.108 62.4562 173.445 62.275C176.107 60.8434 178.766 59.8462 181.424 59.239C183.94 58.639 186.404 58.4266 188.657 58.627C192.915 59.0098 195.974 60.871 197.447 64.0846C197.461 64.1086 198.513 66.469 198.614 68.695L198.103 67.4206C197.968 66.7846 197.794 66.1306 197.461 65.545C196.37 63.4234 194.243 61.9006 191.375 61.0078C188.77 60.1846 185.349 60.1486 181.8 60.8434C178.65 61.441 175.444 62.6314 172.393 64.1434V69.7402H172.688C174.519 68.3782 176.494 67.3798 178.547 66.565C183.928 64.249 189.162 63.5482 193.09 64.591C195.974 65.4166 197.859 67.1206 198.626 69.7402H202.014V56.7646C197.167 56.2126 184.25 55.3186 172.393 62.1046Z" fill="white"/>
<path fill-rule="evenodd" clip-rule="evenodd" d="M192.52 66.6723C189.95 65.9907 186.993 65.9499 183.715 66.5571C180.79 67.0923 177.724 68.0859 174.776 69.7407H197.273C196.225 68.2119 194.557 67.2327 192.52 66.6723Z" fill="white"/>
<path d="M703.738 54.5818H711.946V56.2778H705.77V59.3818H711.61V61.0618H705.77V64.4698H711.946V66.1818H703.738V54.5818ZM713.582 54.5818H717.95C720.062 54.5818 722.126 55.1578 722.126 57.5418C722.126 58.6298 721.518 59.6058 720.83 60.0218C721.79 60.4538 722.574 61.2058 722.574 62.7418C722.574 65.2378 720.606 66.1818 718.238 66.1818H713.582V54.5818ZM715.614 59.4298H718.142C719.326 59.4298 720.062 58.9018 720.062 57.7658C720.062 56.7418 719.294 56.2138 718.142 56.2138H715.614V59.4298ZM715.614 64.5498H718.318C719.758 64.5498 720.478 63.8938 720.478 62.7418C720.478 61.5578 719.758 60.9818 718.206 60.9818H715.614V64.5498ZM727.198 60.2458L723.198 54.5818H725.63L728.414 58.5338L731.262 54.5818H733.566L729.566 60.1498L733.838 66.1818H731.406L728.334 61.8458L725.214 66.1818H722.926L727.198 60.2458ZM744.254 58.2618H742.318C741.934 56.8378 740.83 56.0378 739.31 56.0378C737.342 56.0378 735.886 57.4938 735.886 60.3418C735.886 63.1578 737.246 64.7258 739.294 64.7258C740.67 64.7258 742.398 64.1178 742.398 62.0538V61.8298H739.438V60.1178H744.286V66.1818H742.686L742.622 64.7898C741.934 65.8138 740.654 66.3898 739.07 66.3898C735.774 66.3898 733.79 63.9738 733.79 60.3418C733.79 56.7418 735.918 54.3738 739.358 54.3738C741.95 54.3738 743.774 55.7978 744.254 58.2618ZM756.073 54.5818V66.1818H754.041V61.0618H748.505V66.1818H746.473V54.5818H748.505V59.3818H754.041V54.5818H756.073ZM760.97 56.2778H757.322V54.5818H766.65V56.2778H763.002V66.1818H760.97V56.2778Z" fill="white"/>
<path d="M656.2 42.766C655.752 45.006 654.002 46.182 651.804 46.182C648.892 46.182 647.198 43.998 647.198 40.904C647.198 37.754 649.046 35.668 651.916 35.668C654.016 35.668 655.71 36.914 656.144 39.084H654.758C654.45 37.824 653.47 36.872 651.846 36.872C650.054 36.872 648.654 38.272 648.654 40.904C648.654 43.466 649.998 44.978 651.888 44.978C653.498 44.978 654.492 44.068 654.814 42.766H656.2ZM661.399 37.474H660.335L661.595 35.85H663.233L661.399 37.474ZM664.521 42.262C664.521 44.992 662.659 46.182 660.909 46.182C659.159 46.182 657.297 44.992 657.297 42.262C657.297 39.532 659.159 38.342 660.909 38.342C662.659 38.342 664.521 39.532 664.521 42.262ZM660.909 45.062C662.057 45.062 663.163 44.194 663.163 42.262C663.163 40.26 662.057 39.462 660.909 39.462C659.761 39.462 658.655 40.204 658.655 42.262C658.655 44.264 659.761 45.062 660.909 45.062ZM671.32 35.85H672.594V46H671.32V44.866C670.858 45.664 670.06 46.182 668.856 46.182C667.134 46.182 665.636 44.754 665.636 42.262C665.636 39.784 667.134 38.342 668.856 38.342C670.06 38.342 670.858 38.86 671.32 39.658V35.85ZM669.178 39.434C667.876 39.434 667.022 40.47 667.022 42.262C667.022 44.054 667.876 45.09 669.178 45.09C670.312 45.09 671.376 44.25 671.376 42.262C671.376 40.274 670.312 39.434 669.178 39.434ZM675.878 35.85V37.39H674.604V35.85H675.878ZM675.878 38.468V46H674.604V38.468H675.878ZM682.967 38.468H684.241V44.992C684.241 46.532 683.961 47.162 683.527 47.638C682.981 48.268 682.043 48.632 680.923 48.632C679.215 48.632 678.067 47.848 677.829 46.322H679.187C679.355 46.994 679.761 47.512 680.937 47.512C681.623 47.512 682.141 47.316 682.477 46.952C682.757 46.658 682.967 46.308 682.967 45.286V44.572C682.505 45.37 681.777 45.874 680.573 45.874C678.907 45.874 677.381 44.53 677.381 42.108C677.381 39.7 678.907 38.342 680.573 38.342C681.777 38.342 682.505 38.86 682.967 39.658V38.468ZM680.895 39.434C679.649 39.434 678.767 40.4 678.767 42.108C678.767 43.83 679.649 44.796 680.895 44.796C682.029 44.796 683.023 44.026 683.023 42.108C683.023 40.204 682.029 39.434 680.895 39.434ZM692.986 42.262C692.986 44.992 691.124 46.182 689.374 46.182C687.624 46.182 685.762 44.992 685.762 42.262C685.762 39.532 687.624 38.342 689.374 38.342C691.124 38.342 692.986 39.532 692.986 42.262ZM689.374 45.062C690.522 45.062 691.628 44.194 691.628 42.262C691.628 40.26 690.522 39.462 689.374 39.462C688.226 39.462 687.12 40.204 687.12 42.262C687.12 44.264 688.226 45.062 689.374 45.062ZM702.998 35.85H704.272V46H702.998V44.866C702.536 45.664 701.738 46.182 700.534 46.182C698.812 46.182 697.314 44.754 697.314 42.262C697.314 39.784 698.812 38.342 700.534 38.342C701.738 38.342 702.536 38.86 702.998 39.658V35.85ZM700.856 39.434C699.554 39.434 698.7 40.47 698.7 42.262C698.7 44.054 699.554 45.09 700.856 45.09C701.99 45.09 703.054 44.25 703.054 42.262C703.054 40.274 701.99 39.434 700.856 39.434ZM707.135 42.654C707.191 44.278 708.339 45.062 709.459 45.062C710.579 45.062 711.195 44.558 711.517 43.816H712.833C712.483 45.118 711.293 46.182 709.459 46.182C707.079 46.182 705.763 44.474 705.763 42.248C705.763 39.868 707.359 38.342 709.417 38.342C711.713 38.342 713.099 40.274 712.931 42.654H707.135ZM707.149 41.562H711.587C711.559 40.498 710.761 39.434 709.417 39.434C708.283 39.434 707.261 40.05 707.149 41.562ZM721.49 39.798C721.224 39.77 720.986 39.742 720.776 39.742C719.6 39.742 719.012 40.4 719.012 42.052V46H717.738V38.468H718.984V39.784C719.362 38.93 720.132 38.454 721.112 38.426C721.238 38.426 721.35 38.426 721.49 38.44V39.798ZM723.432 42.654C723.488 44.278 724.636 45.062 725.756 45.062C726.876 45.062 727.492 44.558 727.814 43.816H729.13C728.78 45.118 727.59 46.182 725.756 46.182C723.376 46.182 722.06 44.474 722.06 42.248C722.06 39.868 723.656 38.342 725.714 38.342C728.01 38.342 729.396 40.274 729.228 42.654H723.432ZM723.446 41.562H727.884C727.856 40.498 727.058 39.434 725.714 39.434C724.58 39.434 723.558 40.05 723.446 41.562ZM735.052 40.666C734.856 39.77 734.156 39.42 733.274 39.42C732.532 39.42 731.692 39.686 731.692 40.372C731.692 40.974 732.112 41.254 732.84 41.394L733.904 41.604C735.276 41.87 736.48 42.388 736.48 43.844C736.48 45.328 735.136 46.182 733.414 46.182C731.44 46.182 730.32 44.88 730.18 43.564H731.524C731.72 44.53 732.322 45.104 733.442 45.104C734.408 45.104 735.192 44.684 735.192 43.984C735.192 43.228 734.478 42.906 733.666 42.738L732.546 42.514C731.524 42.304 730.404 41.828 730.404 40.428C730.404 39.098 731.748 38.328 733.414 38.328C735.038 38.328 736.144 39.238 736.382 40.666H735.052ZM738.95 42.654C739.006 44.278 740.154 45.062 741.274 45.062C742.394 45.062 743.01 44.558 743.332 43.816H744.648C744.298 45.118 743.108 46.182 741.274 46.182C738.894 46.182 737.578 44.474 737.578 42.248C737.578 39.868 739.174 38.342 741.232 38.342C743.528 38.342 744.914 40.274 744.746 42.654H738.95ZM738.964 41.562H743.402C743.374 40.498 742.576 39.434 741.232 39.434C740.098 39.434 739.076 40.05 738.964 41.562ZM749.983 39.798C749.717 39.77 749.479 39.742 749.269 39.742C748.093 39.742 747.505 40.4 747.505 42.052V46H746.231V38.468H747.477V39.784C747.855 38.93 748.625 38.454 749.605 38.426C749.731 38.426 749.843 38.426 749.983 38.44V39.798ZM753.657 44.236L755.701 38.468H757.017L754.175 46H753.041L750.199 38.468H751.613L753.657 44.236ZM757.308 44.012C757.308 42.234 759.31 41.716 762.404 41.366V41.184C762.404 39.812 761.634 39.35 760.696 39.35C759.646 39.35 759.03 39.924 758.974 40.848H757.658C757.784 39.224 759.212 38.314 760.682 38.314C762.754 38.314 763.692 39.308 763.678 41.422L763.664 43.158C763.65 44.418 763.72 45.286 763.86 46H762.572C762.53 45.72 762.488 45.412 762.474 44.964C762.012 45.734 761.228 46.182 759.898 46.182C758.484 46.182 757.308 45.398 757.308 44.012ZM762.502 42.374C760.192 42.612 758.722 42.948 758.722 43.984C758.722 44.698 759.268 45.174 760.178 45.174C761.368 45.174 762.502 44.628 762.502 42.85V42.374ZM765.478 40.078V38.468H767.088V40.078H765.478ZM765.478 46V44.39H767.088V46H765.478Z" fill="white"/>
<rect opacity="0.5" x="32" y="96" width="736" height="1" fill="#CCCCCB"/>
</svg>
